# AST/ASF file generated using VICON BodyLanguage
# -----------------------------------------------
:version 1.10
:name VICON
:units
  mass 1.0
  length 0.45
  angle deg
:documentation
   .ast/.asf automatically generated from VICON data using
   VICON BodyBuilder and BodyLanguage model FoxedUp or BRILLIANT.MOD
:root
   order TX TY TZ RX RY RZ
   axis XYZ
   position 0 0 0  
   orientation 0 0 0 
:bonedata
  begin
     id 1 
     name lhipjoint
     direction 0.690799 -0.707083 0.151096 
     length 2.54797 
     axis 0 0 0  XYZ
  end
  begin
     id 2 
     name lfemur
     direction 0.34202 -0.939693 0  
     length 7.21646  
     axis 0 0 20  XYZ
    dof rx ry rz
    limits (-160.0 20.0)
           (-70.0 70.0)
           (-60.0 70.0)
  end
  begin
     id 3 
     name ltibia
     direction 0.34202 -0.939693 0   
     length 8.16759   
     axis 0 0 20   XYZ
    dof rx
    limits (-10.0 170.0)
  end
  begin
     id 4 
     name lfoot
     direction 0.0487203 -0.133858 0.989802   
     length 1.93375   
     axis -90 7.62852e-016 20   XYZ
    dof rx rz
    limits (-45.0 90.0)
           (-70.0 20.0)
  end
  begin
     id 5 
     name ltoes
     direction 1.53453e-011 -4.21783e-011 1   
     length 0.979747   
     axis -90 7.62852e-016 20   XYZ
    dof rx
    limits (-90.0 20.0)
  end
  begin
     id 6 
     name rhipjoint
     direction -0.694693 -0.703425 0.150315   
     length 2.56122  
     axis 0 0 0  XYZ 
  end
  begin
     id 7 
     name rfemur
     direction -0.34202 -0.939693 0   
     length 7.36786   
     axis 0 0 -20   XYZ
    dof rx ry rz
    limits (-160.0 20.0)
           (-70.0 70.0)
           (-70.0 60.0)
  end
  begin
     id 8 
     name rtibia
     direction -0.34202 -0.939693 0   
     length 8.07288   
     axis 0 0 -20   XYZ
    dof rx
    limits (-10.0 170.0)
 end
 begin
     id 9 
     name rfoot
     direction -0.0428397 -0.117701 0.992125   
     length 1.88295  
     axis -90 -7.62852e-016 -20   XYZ
    dof rx rz
    limits (-45.0 90.0)
           (-20.0 70.0)
  end
  begin
     id 10 
     name rtoes
     direction -1.53456e-011 -4.2187e-011 1   
     length 0.955578   
     axis -90 -7.62852e-016 -20   XYZ
    dof rx
    limits (-90.0 20.0)
  end
  begin
     id 11 
     name lowerback
     direction 0.0288145 0.999398 -0.0193241   
     length 1.92149   
     axis 0 0 0   XYZ
    dof rx ry rz
    limits (-20.0 45.0)
           (-30.0 30.0)
           (-30.0 30.0)
  end
  begin
     id 12 
     name upperback
     direction 0.0233784 0.998099 0.0570278   
     length 1.90435   
     axis 0 0 0   XYZ
    dof rx ry rz
    limits (-20.0 45.0)
           (-30.0 30.0)
           (-30.0 30.0)
  end
  begin
     id 13 
     name thorax
     direction 0.0096694 0.997833 0.0650817   
     length 1.9111   
     axis 0 0 0   XYZ
    dof rx ry rz
    limits (-20.0 45.0)
           (-30.0 30.0)
           (-30.0 30.0)
  end
  begin
     id 14 
     name lowerneck
     direction 0.00516803 0.999916 0.0118722   
     length 1.74664   
     axis 0 0 0   XYZ
    dof rx ry rz
    limits (-20.0 45.0)
           (-30.0 30.0)
           (-30.0 30.0)
  end
  begin
     id 15 
     name upperneck
     direction -0.0510851 0.996117 -0.071696   
     length 1.68498   
     axis 0 0 0   XYZ
    dof rx ry rz
    limits (-20.0 45.0)
           (-30.0 30.0)
           (-30.0 30.0)
  end
  begin
     id 16
     name head
     direction -0.019188 0.999436 -0.0275702  
     length 1.83483  
     axis 0 0 0   XYZ
    dof rx ry rz
    limits (-20.0 45.0)
           (-30.0 30.0)
           (-30.0 30.0)
  end
  begin
     id 17 
     name lclavicle
     direction 0.967006 0.248456 -0.0562957  
     length 3.39395  
     axis 0 0 0   XYZ
    dof ry rz
    limits (-20.0 10.0)
           (0.0 20.0)
  end
  begin
     id 18 
     name lhumerus
     direction 1 -4.48962e-011 -5.62711e-019   
     length 5.24318   
     axis 180 -30 -90   XYZ
    dof rx ry rz
    limits (-60.0 90.0)
           (-90.0 90.0)
           (-90.0 90.0)
  end
  begin
     id 19
     name lradius
     direction 1 -4.48966e-011 7.90625e-027   
     length 2.98999   
     axis 180 -30 -90   XYZ
    dof rx
    limits (-10.0 170.0)
  end
  begin
     id 20
     name lwrist
     direction 1 -4.48959e-011 1.61068e-026   
     length 1.49499   
     axis -9.31229e-015 90 90   XYZ
    dof ry
    limits (-180.0 0.0)
 end
  begin
     id 21 
     name lhand
     direction 1 -4.49017e-011 3.22136e-026   
     length 0.726745   
     axis -2.0555e-014 90 90   XYZ
    dof rx rz
    limits (-90.0 90.0)
           (-45.0 45.0)
  end
  begin
     id 22 
     name lfingers
     direction 1 -4.4898e-011 6.44272e-026   
     length 0.58592   
     axis -4.11101e-014 90 90   XYZ
    dof rx
    limits (0.0 90.0)
  end
  begin
     id 23
     name lthumb
     direction 0.707107 -6.34922e-011 0.707107   
     length 0.841268   
     axis -90 45 2.85299e-015   XYZ
    dof rx rz
    limits (-45.0 45.0)
           (-45.0 45.0)
  end
  begin
     id 24 
     name rclavicle
     direction -0.972232 0.230238 0.0419005   
     length 3.40416  
     axis 0 0 0   XYZ 
    dof ry rz
    limits (-10.0 20.0)
           (-20.0 0.0)
  end
  begin
     id 25 
     name rhumerus
     direction -1 -4.48976e-011 2.48487e-027  
     length 5.37045   
     axis 180 30 90   XYZ
    dof rx ry rz
    limits (-90.0 60.0)
           (-90.0 90.0)
           (-90.0 90.0)
  end
  begin
     id 26 
     name rradius
     direction -1 -4.48942e-011 7.87951e-027   
     length 2.92792   
     axis 180 30 90   XYZ
    dof rx
    limits (-10.0 170.0)
  end
  begin
     id 27 
     name rwrist
     direction -1 -4.48969e-011 1.61068e-026   
     length 1.46396   
     axis -9.31229e-015 -90 -90   XYZ
    dof ry
    limits (-180.0 0.0)
  end
  begin
     id 28
     name rhand
     direction -1 -4.49043e-011 3.22136e-026   
     length 0.784497   
     axis -2.0555e-014 -90 -90   XYZ
    dof rx rz
    limits (-90.0 90.0)
           (-45.0 45.0)
  end
  begin
     id 29
     name rfingers
     direction -1 -4.48823e-011 6.44272e-026   
     length 0.632482   
     axis -4.11101e-014 -90 -90   XYZ
    dof rx
    limits (0.0 90.0)
  end
  begin
     id 30
     name rthumb
     direction -0.707107 -6.34923e-011 0.707107   
     length 0.908121   
     axis -90 -45 -2.85299e-015   XYZ
    dof rx rz
    limits (-45.0 45.0)
           (-45.0 45.0)
  end
:hierarchy
  begin
    root lhipjoint rhipjoint lowerback
    lhipjoint lfemur
    lfemur ltibia
    ltibia lfoot
    lfoot ltoes
    rhipjoint rfemur
    rfemur rtibia
    rtibia rfoot
    rfoot rtoes
    lowerback upperback
    upperback thorax
    thorax lowerneck lclavicle rclavicle
    lowerneck upperneck
    upperneck head
    lclavicle lhumerus
    lhumerus lradius
    lradius lwrist
    lwrist lhand lthumb
    lhand lfingers
    rclavicle rhumerus
    rhumerus rradius
    rradius rwrist
    rwrist rhand rthumb
    rhand rfingers
  end

#!OML:ASF E:\Style6\Style6.ASF
:FULLY-SPECIFIED
:DEGREES
2016
root 0.505071 18.2535 0.00444297 30.9711 1.9924 -1.52787
lowerback 11.898 -1.75606 5.19792
upperback -5.56527 -1.16043 2.63315
thorax -12.9127 -0.843945 0.24116
lowerneck -6.12873 1.37662 2.70531
upperneck -14.3057 1.05218 -6.81191
head -3.55545 0.598849 -2.7673
rclavicle -1.11319e-014 -8.34896e-015
rhumerus -7.55566 12.5106 -90.7456
rradius 26.0975
rwrist 45.428
rhand -6.77191 3.82171
rfingers 7.12502
rthumb 19.0902 -25.2614
lclavicle -1.11319e-014 -8.34896e-015
lhumerus -8.88633 -43.4022 89.9332
lradius 31.7881
lwrist -9.23172
lhand -5.52746 23.0948
lfingers 7.12502
lthumb 20.2866 52.0554
rfemur -32.5938 12.807 11.3582
rtibia 5.72624e-014
rfoot -5.29871 -29.9676
rtoes 23.2773
lfemur -43.8698 -33.6375 5.79426
ltibia 14.9109
lfoot -15.1455 42.3688
ltoes 15.9043
2017
root 0.505125 18.2532 0.00209303 30.9843 1.99159 -1.5186
lowerback 11.8855 -1.75137 5.19251
upperback -5.57791 -1.15632 2.6254
thorax -12.9194 -0.842237 0.234764
lowerneck -6.37855 1.50796 2.63395
upperneck -13.9533 1.25535 -6.73815
head -3.37347 0.694329 -2.71623
rclavicle 2.72335e-014 -1.31198e-014
rhumerus -7.57329 12.5019 -90.7448
rradius 26.131
rwrist 45.3352
rhand -6.696 3.77445
rfingers 7.12502
rthumb 19.1632 -25.3014
lclavicle 2.72335e-014 -1.31198e-014
lhumerus -8.89546 -43.1126 89.9726
lradius 31.711
lwrist -9.56235
lhand -5.39879 23.0927
lfingers 7.12502
lthumb 20.4102 52.0401
rfemur -32.6124 12.7957 11.3491
rtibia -4.41923e-014
rfoot -5.41064 -29.9702
rtoes 23.7924
lfemur -43.8754 -33.5819 5.74069
ltibia 14.9262
lfoot -14.9635 42.3699
ltoes 15.3769
2018
root 0.503686 18.2527 -0.000264727 30.981 1.99674 -1.50718
lowerback 11.8861 -1.74691 5.1712
upperback -5.57056 -1.15432 2.62522
thorax -12.9105 -0.839313 0.245721
lowerneck -6.9663 1.73066 2.54657
upperneck -13.216 1.59806 -6.65612
head -2.99166 0.850772 -2.6439
rclavicle -1.39149e-014 2.34566e-014
rhumerus -7.53623 12.4722 -90.7297
rradius 26.1099
rwrist 45.264
rhand -6.70517 3.79179
rfingers 7.12502
rthumb 19.1544 -25.285
lclavicle -1.39149e-014 2.34566e-014
lhumerus -8.88132 -42.9681 89.9739
lradius 31.6947
lwrist -9.74569
lhand -5.31055 23.0549
lfingers 7.12502
lthumb 20.495 51.9932
rfemur -32.6117 12.7842 11.3499
rtibia 4.17199e-014
rfoot -5.48109 -29.9797
rtoes 24.1133
lfemur -43.8098 -33.4559 5.61111
ltibia 14.9127
lfoot -14.7593 42.2715
ltoes 15.3057
2019
root 0.502195 18.2539 -0.00218886 30.9598 2.00643 -1.50247
lowerback 11.9113 -1.72244 5.18796
upperback -5.5619 -1.11984 2.59848
thorax -12.9154 -0.825819 0.199295
lowerneck -7.19692 1.9189 2.68844
upperneck -12.8808 1.85063 -6.77933
head -2.82054 0.96682 -2.69905
rclavicle 3.02153e-014 -9.14409e-015
rhumerus -7.49048 12.3224 -90.7072
rradius 26.0535
rwrist 45.2521
rhand -6.76752 3.78265
rfingers 7.12502
rthumb 19.0944 -25.3001
lclavicle 3.02153e-014 -9.14409e-015
lhumerus -8.86857 -43.0239 89.9673
lradius 31.6965
lwrist -9.82505
lhand -5.28516 22.9729
lfingers 7.12502
lthumb 20.5194 51.9085
rfemur -32.585 12.7775 11.3664
rtibia -8.77883e-014
rfoot -5.42825 -29.9994
rtoes 23.7043
lfemur -43.7735 -33.4786 5.60703
ltibia 14.875
lfoot -14.7146 42.2827
ltoes 15.4277
2020
root 0.501083 18.2542 -0.00445151 30.9572 2.01167 -1.47707
lowerback 11.8885 -1.69169 5.19102
upperback -5.5428 -1.0859 2.55107
thorax -12.8787 -0.812058 0.135836
lowerneck -7.07901 2.07061 2.90682
upperneck -13.0044 2.02746 -6.96782
head -2.87214 1.05373 -2.80825
rclavicle 1.92821e-014 7.95139e-016
rhumerus -7.42397 12.1604 -90.6996
rradius 26.007
rwrist 45.2556
rhand -6.79586 3.77366
rfingers 7.12502
rthumb 19.0671 -25.3117
lclavicle 1.92821e-014 7.95139e-016
lhumerus -8.79071 -43.3547 89.8821
lradius 31.7211
lwrist -9.63304
lhand -5.27263 22.9748
lfingers 7.12502
lthumb 20.5315 51.9091
rfemur -32.5771 12.7543 11.3494
rtibia -4.87271e-014
rfoot -5.66505 -29.9829
rtoes 24.2011
lfemur -43.7486 -33.4556 5.5641
ltibia 14.8263
lfoot -14.4667 42.3153
ltoes 15.0405
2021
root 0.50043 18.2548 -0.00681648 30.9411 2.00548 -1.41178
lowerback 11.8907 -1.67905 5.14121
upperback -5.54041 -1.08207 2.51173
thorax -12.8761 -0.808149 0.119355
lowerneck -6.91073 2.28881 2.97158
upperneck -13.1498 2.30912 -7.0684
head -2.93498 1.19923 -2.86065
rclavicle -3.29983e-014 2.66371e-014
rhumerus -7.40689 12.0579 -90.69
rradius 25.9871
rwrist 45.3152
rhand -6.74743 3.78228
rfingers 7.12502
rthumb 19.1137 -25.2985
lclavicle -3.29983e-014 2.66371e-014
lhumerus -8.7658 -43.5619 89.8433
lradius 31.7297
lwrist -9.53326
lhand -5.23346 22.997
lfingers 7.12502
lthumb 20.5691 51.9272
rfemur -32.5559 12.7203 11.2925
rtibia 7.87684e-014
rfoot -5.72211 -29.9777
rtoes 24.4114
lfemur -43.7455 -33.54 5.5414
ltibia 14.7734
lfoot -14.3683 42.4329
ltoes 14.8428
2022
root 0.498876 18.2549 -0.00953758 30.926 2.03322 -1.43109
lowerback 11.9074 -1.67471 5.17596
upperback -5.55701 -1.06995 2.4957
thorax -12.9065 -0.806748 0.0806132
lowerneck -6.77408 2.54699 2.96597
upperneck -13.2543 2.65265 -7.13473
head -2.97493 1.37723 -2.88682
rclavicle 4.17448e-015 -5.1684e-015
rhumerus -7.43263 11.9848 -90.7065
rradius 25.967
rwrist 45.3537
rhand -6.72512 3.80754
rfingers 7.12502
rthumb 19.1352 -25.2711
lclavicle 4.17448e-015 -5.1684e-015
lhumerus -8.86803 -43.3885 89.9034
lradius 31.7303
lwrist -9.78702
lhand -5.22574 22.9276
lfingers 7.12502
lthumb 20.5765 51.8571
rfemur -32.5464 12.7118 11.3407
rtibia -3.15571e-015
rfoot -5.63559 -30.0016
rtoes 24.1227
lfemur -43.7371 -33.5923 5.61619
ltibia 14.7215
lfoot -14.6773 42.4073
ltoes 15.5607
2023
root 0.496587 18.2558 -0.0103055 30.8771 2.07923 -1.45901
lowerback 11.9298 -1.66788 5.20731
upperback -5.55259 -1.05315 2.49968
thorax -12.9154 -0.801233 0.0641156
lowerneck -6.68028 2.80337 2.8745
upperneck -13.3804 2.9951 -7.20272
head -3.0156 1.55842 -2.89792
rclavicle -1.80894e-014 2.26615e-014
rhumerus -7.45288 11.9321 -90.688
rradius 25.9531
rwrist 45.3974
rhand -6.767 3.80451
rfingers 7.12502
rthumb 19.0949 -25.2782
lclavicle -1.80894e-014 2.26615e-014
lhumerus -8.93128 -43.2732 89.9716
lradius 31.7536
lwrist -9.92537
lhand -5.1936 22.986
lfingers 7.12502
lthumb 20.6074 51.9122
rfemur -32.4875 12.7019 11.4199
rtibia 4.77083e-015
rfoot -5.48179 -30.059
rtoes 23.694
lfemur -43.6744 -33.6112 5.64204
ltibia 14.6734
lfoot -14.8658 42.3747
ltoes 15.8924
2024
root 0.49437 18.2572 -0.0105075 30.8553 2.10524 -1.45109
lowerback 11.9169 -1.6676 5.18556
upperback -5.54907 -1.05645 2.51036
thorax -12.9026 -0.800192 0.0882602
lowerneck -6.51579 3.12019 2.85225
upperneck -13.5635 3.40726 -7.35888
head -3.08295 1.77556 -2.95585
rclavicle 1.68967e-014 -3.1408e-014
rhumerus -7.43058 11.8871 -90.6699
rradius 25.8642
rwrist 45.4571
rhand -6.84925 3.77022
rfingers 7.12502
rthumb 19.0158 -25.3202
lclavicle 1.68967e-014 -3.1408e-014
lhumerus -8.92795 -43.2889 89.9902
lradius 31.7538
lwrist -9.84942
lhand -5.15376 23.0263
lfingers 7.12502
lthumb 20.6457 51.9483
rfemur -32.4462 12.6828 11.4469
rtibia 1.02374e-014
rfoot -5.56385 -30.0708
rtoes 23.9691
lfemur -43.7276 -33.7885 5.77693
ltibia 14.653
lfoot -14.9026 42.5741
ltoes 15.8119
2025
root 0.493324 18.2581 -0.0118168 30.8642 2.11119 -1.41341
lowerback 11.8695 -1.65968 5.13338
upperback -5.55613 -1.05801 2.51153
thorax -12.88 -0.796397 0.117846
lowerneck -6.33753 3.54091 3.06772
upperneck -13.6715 3.93362 -7.76575
head -3.11176 2.04521 -3.14233
rclavicle 2.5842e-014 -1.55052e-014
rhumerus -7.40922 11.9357 -90.6423
rradius 25.794
rwrist 45.4571
rhand -6.81893 3.7514
rfingers 7.12502
rthumb 19.045 -25.3362
lclavicle 2.5842e-014 -1.55052e-014
lhumerus -8.93563 -43.321 90.0157
lradius 31.7579
lwrist -9.75389
lhand -5.2265 23.0416
lfingers 7.12502
lthumb 20.5758 51.9711
rfemur -32.4521 12.6536 11.4207
rtibia -9.53172e-014
rfoot -5.65209 -30.0749
rtoes 24.2874
lfemur -43.8709 -34.0891 6.01248
ltibia 14.6163
lfoot -15.4214 42.8262
ltoes 16.6266
